<svg width="230" height="112" viewBox="0 0 230 112" fill="none" xmlns="http://www.w3.org/2000/svg">
<path fill-rule="evenodd" clip-rule="evenodd" d="M71.5416 40.4149L52.8944 50.7553L48.5302 48.3617L67.1774 38.0212L71.5416 40.4149Z" fill="#FF4400"/>
<path fill-rule="evenodd" clip-rule="evenodd" d="M64.301 36.3936L45.7529 46.8298L41.3887 44.4362L60.0359 34L64.301 36.3936Z" fill="#FF4400"/>
<path fill-rule="evenodd" clip-rule="evenodd" d="M78.6831 44.4361L60.0359 54.7766L55.6716 52.3829L74.3189 41.9468L78.6831 44.4361Z" fill="#FF4400"/>
<path fill-rule="evenodd" clip-rule="evenodd" d="M51.4065 53.149V73.9256L47.1415 71.532V50.7554L51.4065 53.149Z" fill="#FFBB33"/>
<path fill-rule="evenodd" clip-rule="evenodd" d="M44.2651 49.1276V69.9042L40 67.5106V46.734L44.2651 49.1276Z" fill="#FFBB33"/>
<path fill-rule="evenodd" clip-rule="evenodd" d="M58.6472 57.1702V77.9468L54.283 75.4575V54.7766L58.6472 57.1702Z" fill="#FFBB33"/>
<path d="M72.9303 50.7554V71.532L68.566 73.9256V53.149L72.9303 50.7554Z" fill="#DB3561"/>
<path d="M65.7887 54.7766V75.4575L61.4244 77.9468V57.1702L65.7887 54.7766Z" fill="#DB3561"/>
<path d="M80.0718 46.734V67.5106L75.7075 69.9042V49.1276L80.0718 46.734Z" fill="#DB3561"/>
<path d="M89.4393 46.4756H96.7775L97.071 48.7713C98.5433 46.9124 100.831 45.8474 103.235 45.9016C104.092 45.8854 104.948 45.9819 105.779 46.1886C106.398 46.3669 106.99 46.6242 107.54 46.9538C107.992 47.1941 108.391 47.5192 108.714 47.9104C108.949 48.1346 109.147 48.3927 109.301 48.6756C109.683 48.2786 110.11 47.9256 110.573 47.6234C111.107 47.2428 111.703 46.9518 112.335 46.7625C112.952 46.4715 113.612 46.2778 114.291 46.1886C114.93 46.0304 115.59 45.9659 116.248 45.9973C118.556 45.8614 120.819 46.6567 122.51 48.1973C124.039 49.8349 124.816 52.0119 124.663 54.2236V67.3282H117.031V56.1367C117.099 55.1955 116.859 54.2576 116.346 53.4583C115.822 52.773 114.966 52.4093 114.096 52.5018C113.15 52.4675 112.23 52.8131 111.552 53.4583C110.857 54.1784 110.503 55.1495 110.573 56.1367V67.2326H103.333V56.1367C103.401 55.1955 103.161 54.2576 102.648 53.4583C102.138 52.7557 101.271 52.3874 100.398 52.5018C99.4807 52.4682 98.592 52.8157 97.9516 53.4583C97.2573 54.1784 96.9025 55.1495 96.9732 56.1367V67.2326H89.3414V46.4756H89.4393Z" fill="white"/>
<path fill-rule="evenodd" clip-rule="evenodd" d="M129.831 52.7559C129.25 54.1297 128.955 55.6087 128.966 57.1014C128.965 58.6244 129.258 60.1331 129.831 61.5434C130.37 62.8693 131.152 64.0814 132.137 65.1164C133.155 66.1464 134.363 66.9665 135.693 67.5305C138.594 68.6894 141.826 68.6894 144.727 67.5305C146.065 66.9792 147.275 66.1574 148.283 65.1164C149.248 64.065 150.028 62.8569 150.59 61.5434C151.171 60.1358 151.465 58.6253 151.455 57.1014C151.465 55.6087 151.171 54.1297 150.59 52.7559C150.051 51.43 149.268 50.2179 148.283 49.1829C147.266 48.153 146.058 47.3328 144.727 46.7688C141.826 45.61 138.594 45.61 135.693 46.7688C134.356 47.3202 133.145 48.1419 132.137 49.1829C131.152 50.2179 130.37 51.43 129.831 52.7559ZM143.093 60.3846C142.342 61.2371 141.246 61.6992 140.114 61.64C138.983 61.6992 137.886 61.2371 137.135 60.3846C135.597 58.4684 135.597 55.7343 137.135 53.8181C137.92 53.015 138.994 52.5627 140.114 52.5627C141.235 52.5627 142.308 53.015 143.093 53.8181C144.631 55.7343 144.631 58.4684 143.093 60.3846Z" fill="white"/>
<path d="M155.739 37.3282H163.235V67.3282H155.739V37.3282Z" fill="white"/>
<path fill-rule="evenodd" clip-rule="evenodd" d="M168.384 52.7559C167.803 54.1297 167.509 55.6087 167.519 57.1014C167.518 58.6244 167.812 60.1331 168.384 61.5434C168.923 62.8693 169.705 64.0814 170.691 65.1164C171.708 66.1464 172.916 66.9665 174.246 67.5305C177.147 68.6894 180.38 68.6894 183.28 67.5305C184.618 66.9792 185.828 66.1574 186.836 65.1164C187.801 64.065 188.581 62.8569 189.143 61.5434C189.724 60.1358 190.018 58.6253 190.008 57.1014C190.018 55.6087 189.724 54.1297 189.143 52.7559C188.604 51.43 187.822 50.2179 186.836 49.1829C185.819 48.153 184.611 47.3328 183.28 46.7688C180.38 45.61 177.147 45.61 174.246 46.7688C172.909 47.3202 171.699 48.1419 170.691 49.1829C169.705 50.2179 168.923 51.43 168.384 52.7559ZM181.647 60.3846C180.896 61.2371 179.799 61.6992 178.667 61.64C177.536 61.6992 176.439 61.2371 175.688 60.3846C174.151 58.4684 174.151 55.7343 175.688 53.8181C176.473 53.015 177.547 52.5627 178.667 52.5627C179.788 52.5627 180.861 53.015 181.647 53.8181C183.184 55.7343 183.184 58.4684 181.647 60.3846Z" fill="white"/>
</svg>
